HIERARCHY
ROOT Hips
{
	OFFSET 0.000000 0.000000 0.000000
	CHANNELS 6 Xposition Yposition Zposition Zrotation Yrotation Xrotation 
	JOINT LHipJoint
	{
		OFFSET 0.000000 0.000000 0.000000
		CHANNELS 3 Zrotation Yrotation Xrotation
		JOINT LeftUpLeg
		{
			OFFSET 1.363060 -1.794630 0.839290
			CHANNELS 3 Zrotation Yrotation Xrotation
			JOINT LeftLeg
			{
				OFFSET 2.448110 -6.726130 0.000000
				CHANNELS 3 Zrotation Yrotation Xrotation
				JOINT LeftFoot
				{
					OFFSET 2.562200 -7.039590 0.000000
					CHANNELS 3 Zrotation Yrotation Xrotation
					JOINT LeftToeBase
					{
						OFFSET 0.157640 -0.433110 2.322550
						CHANNELS 3 Zrotation Yrotation Xrotation
						End Site
						{
							OFFSET 0.000000 0.000000 0.000000
						}
					}
				}
			}
		}
	}
	JOINT RHipJoint
	{
		OFFSET 0.000000 0.000000 0.000000
		CHANNELS 3 Zrotation Yrotation Xrotation
		JOINT RightUpLeg
		{
			OFFSET -1.305520 -1.794630 0.839290
			CHANNELS 3 Zrotation Yrotation Xrotation
			JOINT RightLeg
			{
				OFFSET -2.542530 -6.985550 0.000000
				CHANNELS 3 Zrotation Yrotation Xrotation
				JOINT RightFoot
				{
					OFFSET -2.568260 -7.056230 0.000000
					CHANNELS 3 Zrotation Yrotation Xrotation
					JOINT RightToeBase
					{
						OFFSET -0.164730 -0.452590 2.363150
						CHANNELS 3 Zrotation Yrotation Xrotation
						End Site
						{
							OFFSET 0.000000 0.000000 0.000000
						}
					}
				}
			}
		}
	}
}
MOTION
Frames: 28
Frame Time: 0.008333
2.161784 16.615293 3.150655 12.439665 -41.099425 22.700196 -7.228461 -0.230485 8.022625 0.822646 -25.104142 -52.484731 -1.544712 -0.739647 14.580043 0.685600 5.970649 7.774796 2.440400 0.000000 -63.563100 13.360713 1.088415 -4.758886 -9.470272 -36.903845 -11.852377 2.035385 0.519497 -5.117452 -1.966626 -20.084718 18.793599 -10.551001 0.000000 -75.955301
2.175494 16.592339 3.184899 12.246494 -40.429971 23.217671 -7.196201 -0.205258 8.196495 1.411210 -25.766166 -53.356174 -1.439483 -0.708328 15.056823 0.705684 5.890625 7.478107 2.379200 -0.000000 -63.582600 13.308547 1.062455 -4.811821 -9.137644 -36.719834 -11.644352 1.997534 0.593000 -5.459675 -2.182167 -21.032776 18.739683 -10.957400 0.000000 -75.562301
2.189839 16.573149 3.217403 12.050218 -39.835873 23.717442 -7.171740 -0.178789 8.354880 1.986905 -26.354129 -54.184956 -1.335809 -0.679740 15.494285 0.724656 5.828283 7.247175 2.331301 -0.000000 -63.635200 13.260191 1.027771 -4.851574 -8.794773 -36.517248 -11.442443 1.960281 0.671092 -5.890370 -2.441591 -21.903816 18.825711 -11.317500 -0.000000 -75.212001
2.204475 16.557632 3.247360 11.850584 -39.324001 24.192876 -7.154079 -0.154417 8.489840 2.526565 -26.851023 -54.945730 -1.238113 -0.654896 15.883015 0.741407 5.778347 7.072746 2.293900 -0.000000 -63.711601 13.218030 0.987921 -4.877675 -8.454308 -36.288659 -11.255999 1.921881 0.748560 -6.368816 -2.730832 -22.702053 19.031369 -11.645300 0.000000 -74.959400
2.218829 16.545704 3.274661 11.650457 -38.899914 24.631408 -7.141123 -0.131013 8.602311 3.013916 -27.254459 -55.612180 -1.149951 -0.635170 16.206554 0.756210 5.742927 6.945388 2.266700 -0.000000 -63.796400 13.184990 0.944126 -4.900082 -8.130560 -36.090996 -11.070675 1.893134 0.825303 -6.910825 -3.044614 -23.343550 19.356813 -11.888100 0.000000 -74.719100
2.232568 16.537237 3.299678 11.443609 -38.567040 25.039315 -7.134815 -0.109067 8.691985 3.444852 -27.557280 -56.177166 -1.072712 -0.620940 16.456987 0.768657 5.715986 6.852610 2.246500 -0.000000 -63.879400 13.158046 0.897956 -4.910796 -7.820524 -35.883213 -10.911698 1.867112 0.896560 -7.452863 -3.359939 -23.889166 19.769751 -12.100500 -0.000000 -74.594000
2.245390 16.531867 3.322792 11.232542 -38.284073 25.411609 -7.129984 -0.097912 8.759730 3.815907 -27.778495 -56.627223 -1.010351 -0.615271 16.629258 0.777399 5.696601 6.785377 2.232800 -0.000001 -63.946800 13.106962 0.906373 -4.906897 -7.544931 -35.671892 -11.221153 1.861434 0.883417 -6.951763 -3.444967 -24.274467 19.600223 -12.247000 0.000000 -74.530200
2.257287 16.529266 3.344717 11.005478 -38.086112 25.758715 -7.133312 -0.085019 8.811993 4.139440 -27.909565 -56.975546 -0.958100 -0.614384 16.728489 0.784197 5.677999 6.726696 2.220500 -0.000001 -63.995600 13.058215 0.909963 -4.888552 -7.277640 -35.427335 -11.550911 1.854323 0.865051 -6.434075 -3.503776 -24.614896 19.486748 -12.404800 -0.000000 -74.528400
2.268118 16.528805 3.365872 10.773263 -37.962833 26.067355 -7.140552 -0.067295 8.856988 4.419164 -27.979962 -57.222316 -0.915183 -0.618429 16.756257 0.791317 5.671087 6.667515 2.212000 -0.000001 -64.015600 13.013750 0.910599 -4.869482 -7.035530 -35.223564 -11.875936 1.857391 0.844147 -5.934554 -3.542073 -24.829459 19.432554 -12.510700 0.000001 -74.557600
2.277972 16.529983 3.386755 10.535142 -37.904878 26.343605 -7.152495 -0.044153 8.898334 4.670362 -28.004609 -57.385609 -0.878340 -0.625999 16.728744 0.799732 5.675397 6.598625 2.205600 0.000000 -64.006200 12.971815 0.905805 -4.846660 -6.812655 -35.036341 -12.178032 1.864574 0.824279 -5.482103 -3.566336 -24.973165 19.447032 -12.600500 -0.000001 -74.626200
2.286996 16.532243 3.407719 10.294855 -37.899340 26.588721 -7.168115 -0.015594 8.940112 4.906337 -28.005074 -57.484078 -0.844364 -0.635909 16.663715 0.810965 5.695649 6.514794 2.201900 -0.000000 -63.968300 12.930932 0.896598 -4.822107 -6.609961 -34.868820 -12.451501 1.874930 0.806339 -5.077243 -3.578981 -25.063260 19.518664 -12.680300 -0.000000 -74.729501
2.295325 16.535116 3.429084 10.050472 -37.936433 26.814828 -7.189215 0.017283 8.983498 5.144255 -27.992032 -57.544853 -0.809089 -0.646112 16.586155 0.825645 5.729586 6.411211 2.199200 -0.000001 -63.908000 12.889102 0.879670 -4.789457 -6.416034 -34.675390 -12.677279 1.878927 0.795062 -4.759080 -3.590377 -25.178797 19.659602 -12.801100 -0.000000 -74.859600
2.302871 16.538085 3.450420 9.833114 -37.996024 26.990122 -7.204784 0.054689 9.035949 5.378182 -28.013972 -57.566173 -0.772708 -0.657884 16.501396 0.848025 5.807589 6.293330 2.207100 -0.000000 -63.817600 12.848697 0.871638 -4.775137 -6.269127 -34.600275 -12.907676 1.901443 0.777227 -4.390894 -3.579753 -25.138399 19.768163 -12.818100 0.000000 -74.894500
2.310044 16.540965 3.472075 9.622063 -38.077107 27.149840 -7.222838 0.093457 9.092122 5.628211 -28.053016 -57.588271 -0.730215 -0.667667 16.442911 0.876297 5.910123 6.157414 2.218800 -0.000000 -63.714300 12.806732 0.860016 -4.754782 -6.132246 -34.496314 -13.095731 1.914555 0.765674 -4.095846 -3.574680 -25.158552 19.920856 -12.887100 0.000000 -74.962300
2.316756 16.543551 3.493725 9.429268 -38.170023 27.286539 -7.239627 0.132220 9.152389 5.890255 -28.123171 -57.618467 -0.681603 -0.675189 16.422267 0.911499 6.045071 6.007550 2.236900 0.000000 -63.600800 12.764512 0.850570 -4.735660 -6.015712 -34.400063 -13.259597 1.924072 0.756347 -3.830580 -3.571617 -25.199242 20.082689 -12.971400 -0.000000 -75.037000
2.323008 16.545694 3.515045 9.259872 -38.270361 27.400204 -7.253715 0.169353 9.214880 6.157761 -28.225894 -57.664248 -0.627442 -0.679932 16.449756 0.953374 6.211967 5.847200 2.261501 -0.000000 -63.482000 12.723050 0.845590 -4.718772 -5.922089 -34.315270 -13.407974 1.930472 0.747805 -3.579414 -3.571211 -25.255956 20.237792 -13.062800 -0.000001 -75.096700
2.328982 16.547429 3.535846 9.107997 -38.378152 27.498243 -7.266906 0.202958 9.275146 6.424042 -28.347609 -57.732228 -0.568539 -0.680829 16.534615 1.000081 6.399782 5.678513 2.289700 0.000001 -63.365299 12.682304 0.842859 -4.699034 -5.843585 -34.209895 -13.534186 1.928528 0.742178 -3.361935 -3.578772 -25.366520 20.392074 -13.186300 0.000000 -75.137100
2.334373 16.548640 3.555560 8.990569 -38.491572 27.565271 -7.273937 0.232744 9.333231 6.668512 -28.493474 -57.811978 -0.508954 -0.679278 16.669115 1.051509 6.613549 5.507119 2.323700 0.000000 -63.246900 12.645218 0.850790 -4.686976 -5.799430 -34.150637 -13.674570 1.930182 0.731417 -3.100490 -3.583718 -25.434008 20.499142 -13.266600 0.000001 -75.142000
2.339505 16.549529 3.574189 8.886939 -38.617489 27.620323 -7.281758 0.257090 9.381298 6.884850 -28.629361 -57.905476 -0.449802 -0.673504 16.857854 1.103405 6.826033 5.331476 2.355500 -0.000000 -63.138600 12.610627 0.859435 -4.666548 -5.768685 -34.042885 -13.788322 1.919108 0.724658 -2.886185 -3.600087 -25.578071 20.613542 -13.396200 -0.000001 -75.147100
2.344257 16.549994 3.591311 8.808185 -38.757052 27.650098 -7.286659 0.276539 9.420223 7.053375 -28.754260 -57.998975 -0.395446 -0.665021 17.087718 1.154869 7.037068 5.154197 2.386000 0.000000 -63.035100 12.580216 0.875827 -4.647633 -5.766393 -33.952797 -13.913013 1.907874 0.714031 -2.641752 -3.616488 -25.699626 20.695160 -13.500300 0.000000 -75.196100
2.348786 16.550170 3.606971 8.740162 -38.914894 27.664667 -7.293655 0.291163 9.445351 7.168059 -28.843112 -58.085144 -0.347553 -0.652848 17.354568 1.202247 7.224433 4.972256 2.408200 0.000001 -62.942500 12.552950 0.892592 -4.622425 -5.779966 -33.831416 -14.018974 1.889319 0.705018 -2.422415 -3.637480 -25.846289 20.770180 -13.617900 -0.000000 -75.211400
2.353132 16.550041 3.621066 8.682142 -39.093051 27.660669 -7.303000 0.301963 9.456122 7.220226 -28.888217 -58.152045 -0.308549 -0.637423 17.646865 1.243844 7.380223 4.784706 2.420400 0.000001 -62.858300 12.529200 0.909621 -4.592870 -5.812875 -33.691557 -14.106512 1.866569 0.696635 -2.220588 -3.658850 -25.988468 20.832118 -13.728700 0.000000 -75.192400
2.357482 16.549564 3.633542 8.631978 -39.293654 27.637025 -7.314689 0.310051 9.453749 7.206558 -28.885121 -58.194440 -0.279934 -0.619389 17.953895 1.278715 7.500268 4.590278 2.421500 0.000000 -62.780600 12.508740 0.927762 -4.560148 -5.866249 -33.546787 -14.185628 1.842338 0.687332 -2.021315 -3.677906 -26.107133 20.885120 -13.822300 0.000000 -75.226399
2.361890 16.548732 3.644550 8.585734 -39.516452 27.595532 -7.329996 0.316724 9.438724 7.130341 -28.830575 -58.207462 -0.261863 -0.598722 18.268782 1.305981 7.579285 4.387097 2.410000 -0.000000 -62.708800 12.491023 0.944633 -4.524295 -5.937432 -33.394538 -14.246052 1.816939 0.678429 -1.839175 -3.693021 -26.198043 20.935006 -13.898500 -0.000000 -75.283500
2.366523 16.547529 3.654178 8.540469 -39.760215 27.537302 -7.349284 0.323144 9.412786 6.998997 -28.726820 -58.190937 -0.253663 -0.575574 18.586582 1.325731 7.617327 4.173835 2.386101 0.000000 -62.641900 12.475334 0.959365 -4.486548 -6.024356 -33.239989 -14.285274 1.791726 0.670252 -1.677881 -3.702442 -26.253288 20.985134 -13.953399 -0.000000 -75.361900
2.371483 16.545945 3.662568 8.494305 -40.022465 27.463423 -7.372448 0.330179 9.378201 6.822935 -28.580470 -58.147663 -0.253909 -0.550167 18.904234 1.338819 7.618700 3.950410 2.351000 -0.000000 -62.578900 12.460917 0.971695 -4.448659 -6.125471 -33.090346 -14.302142 1.768132 0.662971 -1.539664 -3.704778 -26.266430 21.037309 -13.983700 0.000000 -75.468700
2.376721 16.543969 3.669851 8.449203 -40.300190 27.375582 -7.398832 0.338591 9.337610 6.614603 -28.401380 -58.082446 -0.260690 -0.522832 19.220662 1.346654 7.590920 3.718004 2.307100 -0.000000 -62.519201 12.447385 0.981764 -4.412167 -6.238219 -32.952502 -14.298185 1.747363 0.656721 -1.425567 -3.699264 -26.234004 21.092757 -13.987400 0.000000 -75.600901
2.382346 16.541660 3.676149 8.403637 -40.590521 27.275312 -7.427756 0.348352 9.293254 6.386938 -28.200273 -58.001799 -0.271642 -0.493883 19.536149 1.351116 7.544180 3.478930 2.257700 0.000000 -62.462199 12.434044 0.990140 -4.378862 -6.360777 -32.832566 -14.275267 1.730366 0.651443 -1.335149 -3.685824 -26.156092 21.151022 -13.964600 -0.000000 -75.754401
